<svg xmlns="http://www.w3.org/2000/svg" width="532.7098388671875" height="524.6698608398438" viewBox="-219.864013671875 -163.0806121826172 532.7098388671875 524.6698608398438"><title>Neo4j Graph Visualization</title><desc>Created using Neo4j (http://www.neo4j.com/)</desc><g class="layer relationships"><g class="relationship" transform="translate(42.610616926503944 97.48645701679202) rotate(387.9310093036915)"><path class="outline" fill="#A5ABB6" stroke="none" d="M 25 0.5 L 30.383877194090296 0.5 L 30.383877194090296 -0.5 L 25 -0.5 Z M 75.9463771940903 0.5 L 81.33025438818059 0.5 L 81.33025438818059 3.5 L 88.33025438818059 0 L 81.33025438818059 -3.5 L 81.33025438818059 -0.5 L 75.9463771940903 -0.5 Z"/><text text-anchor="middle" pointer-events="none" font-size="8px" fill="#000000" x="53.165127194090296" y="3" font-family="sans-serif">ACTED_IN</text></g><g class="relationship" transform="translate(42.610616926503944 97.48645701679202) rotate(293.89719502025247)"><path class="outline" fill="#A5ABB6" stroke="none" d="M 25 0.5 L 25.267261944318868 0.5 L 25.267261944318868 -0.5 L 25 -0.5 Z M 70.82976194431888 0.5 L 71.09702388863774 0.5 L 71.09702388863774 3.5 L 78.09702388863774 0 L 71.09702388863774 -3.5 L 71.09702388863774 -0.5 L 70.82976194431888 -0.5 Z"/><text text-anchor="middle" pointer-events="none" font-size="8px" fill="#000000" x="48.04851194431887" y="3" font-family="sans-serif">ACTED_IN</text></g><g class="relationship" transform="translate(42.610616926503944 97.48645701679202) rotate(524.6944546963725)"><path class="outline" fill="#A5ABB6" stroke="none" d="M 25 0.5 L 42.55763914416437 0.5 L 42.55763914416437 -0.5 L 25 -0.5 Z M 88.12013914416437 0.5 L 105.67777828832874 0.5 L 105.67777828832874 3.5 L 112.67777828832874 0 L 105.67777828832874 -3.5 L 105.67777828832874 -0.5 L 88.12013914416437 -0.5 Z"/><text text-anchor="middle" pointer-events="none" font-size="8px" fill="#000000" x="65.33888914416437" y="3" transform="rotate(180 65.33888914416437 0)" font-family="sans-serif">ACTED_IN</text></g><g class="relationship" transform="translate(42.610616926503944 97.48645701679202) rotate(189.01705373618728)"><path class="outline" fill="#A5ABB6" stroke="none" d="M 25 0.5 L 46.231690951686076 0.5 L 46.231690951686076 -0.5 L 25 -0.5 Z M 91.79419095168608 0.5 L 113.02588190337215 0.5 L 113.02588190337215 3.5 L 120.02588190337215 0 L 113.02588190337215 -3.5 L 113.02588190337215 -0.5 L 91.79419095168608 -0.5 Z"/><text text-anchor="middle" pointer-events="none" font-size="8px" fill="#000000" x="69.01294095168608" y="3" transform="rotate(180 69.01294095168608 0)" font-family="sans-serif">ACTED_IN</text></g><g class="relationship" transform="translate(42.610616926503944 97.48645701679202) rotate(496.13279942018676)"><path class="outline" fill="#A5ABB6" stroke="none" d="M 25 0.5 L 46.106370339610876 0.5 L 46.106370339610876 -0.5 L 25 -0.5 Z M 91.66887033961088 0.5 L 112.77524067922175 0.5 L 112.77524067922175 3.5 L 119.77524067922175 0 L 112.77524067922175 -3.5 L 112.77524067922175 -0.5 L 91.66887033961088 -0.5 Z"/><text text-anchor="middle" pointer-events="none" font-size="8px" fill="#000000" x="68.88762033961088" y="3" transform="rotate(180 68.88762033961088 0)" font-family="sans-serif">ACTED_IN</text></g><g class="relationship" transform="translate(224.02222648394985 264.33750152807386) rotate(234.4552060053718)"><path class="outline" fill="#A5ABB6" stroke="none" d="M 25 0.5 L 43.6288245858654 0.5 L 43.6288245858654 -0.5 L 25 -0.5 Z M 89.1913245858654 0.5 L 107.8201491717308 0.5 L 107.8201491717308 3.5 L 114.8201491717308 0 L 107.8201491717308 -3.5 L 107.8201491717308 -0.5 L 89.1913245858654 -0.5 Z"/><text text-anchor="middle" pointer-events="none" font-size="8px" fill="#000000" x="66.4100745858654" y="3" transform="rotate(180 66.4100745858654 0)" font-family="sans-serif">ACTED_IN</text></g><g class="relationship" transform="translate(157.31220371098817 286.6644146408487) rotate(263.888030482749)"><path class="outline" fill="#A5ABB6" stroke="none" d="M 25 0.5 L 42.15433375165604 0.5 L 42.15433375165604 -0.5 L 25 -0.5 Z M 87.71683375165604 0.5 L 104.87116750331208 0.5 L 104.87116750331208 3.5 L 111.87116750331208 0 L 104.87116750331208 -3.5 L 104.87116750331208 -0.5 L 87.71683375165604 -0.5 Z"/><text text-anchor="middle" pointer-events="none" font-size="8px" fill="#000000" x="64.93558375165604" y="3" transform="rotate(180 64.93558375165604 0)" font-family="sans-serif">ACTED_IN</text></g><g class="relationship" transform="translate(266.41452917056404 217.55694334389318) rotate(208.44111092877495)"><path class="outline" fill="#A5ABB6" stroke="none" d="M 25 0.5 L 43.38008776650422 0.5 L 43.38008776650422 -0.5 L 25 -0.5 Z M 90.27071276650422 0.5 L 108.65080053300844 0.5 L 108.65080053300844 3.5 L 115.65080053300844 0 L 108.65080053300844 -3.5 L 108.65080053300844 -0.5 L 90.27071276650422 -0.5 Z"/><text text-anchor="middle" pointer-events="none" font-size="8px" fill="#000000" x="66.82540026650422" y="3" transform="rotate(180 66.82540026650422 0)" font-family="sans-serif">DIRECTED</text></g><g class="relationship" transform="translate(0.4957180335407435 55.14892274648651) rotate(328.24241231785345)"><path class="outline" fill="#A5ABB6" stroke="none" d="M 24.018736134675446,6.953439040707552 L 24.277555179777966,5.987513214418485 A 88.95949661437865 88.95949661437865 0 0 0 28.137793907535265,6.929983891193459 L 27.922368079286148,7.906504097089467 A 89.95949661437865 89.95949661437865 0 0 1 24.018736134675446,6.953439040707552 Z M 63.65126569714876,8.520593729802044 L 63.46952503422665,7.537247233677391 A 88.95949661437865 88.95949661437865 0 0 0 67.3598715538814,6.727989568364363 L 66.68345458309359,3.8052408481302344 L 74.29235472955901,5.636808089898477 L 68.26176084826515,10.624987862009867 L 67.58534387747734,7.702239141775738 A 89.95949661437865 89.95949661437865 0 0 1 63.65126569714876,8.520593729802044"/><text text-anchor="middle" pointer-events="none" font-size="8px" fill="#000000" x="45.764611096983025" y="12.505523894417024" font-family="sans-serif">WROTE</text></g><g class="relationship" transform="translate(0.4957180335407435 55.14892274648651) rotate(393.8551960888324)"><path class="outline" fill="#A5ABB6" stroke="none" d="M 25 0.5 L 58.697338872839396 0.5 L 58.697338872839396 -0.5 L 25 -0.5 Z M 105.5879638728394 0.5 L 139.2853027456788 0.5 L 139.2853027456788 3.5 L 146.2853027456788 0 L 139.2853027456788 -3.5 L 139.2853027456788 -0.5 L 105.5879638728394 -0.5 Z"/><text text-anchor="middle" pointer-events="none" font-size="8px" fill="#000000" x="82.1426513728394" y="3" font-family="sans-serif">DIRECTED</text></g><g class="relationship" transform="translate(0.4957180335407435 55.14892274648651) rotate(328.24241231785345)"><path class="outline" fill="#A5ABB6" stroke="none" d="M 24.018736134675446,-6.953439040707552 L 24.277555179777966,-5.987513214418485 A 88.95949661437865 88.95949661437865 0 0 1 24.698249146366848,-6.099135491194673 L 24.444159151928954,-7.066316071400124 A 89.95949661437865 89.95949661437865 0 0 0 24.018736134675446,-6.953439040707552 Z M 67.15629313689027,-7.80042992377048 L 66.9355901901443,-6.825088850454264 A 88.95949661437865 88.95949661437865 0 0 1 67.3598715538814,-6.727989568364363 L 66.68345458309359,-3.8052408481302344 L 74.29235472955901,-5.636808089898477 L 68.26176084826515,-10.624987862009867 L 67.58534387747734,-7.702239141775738 A 89.95949661437865 89.95949661437865 0 0 0 67.15629313689027,-7.80042992377048"/><text text-anchor="middle" pointer-events="none" font-size="8px" fill="#000000" x="45.76461109698301" y="-6.505523894417024" font-family="sans-serif">PRODU…</text></g><g class="relationship" transform="translate(0.4957180335407435 55.14892274648651) rotate(499.05288332329985)"><path class="outline" fill="#A5ABB6" stroke="none" d="M 25 0.5 L 33.08244518814603 0.5 L 33.08244518814603 -0.5 L 25 -0.5 Z M 79.97307018814604 0.5 L 88.05551537629206 0.5 L 88.05551537629206 3.5 L 95.05551537629206 0 L 88.05551537629206 -3.5 L 88.05551537629206 -0.5 L 79.97307018814604 -0.5 Z"/><text text-anchor="middle" pointer-events="none" font-size="8px" fill="#000000" x="56.52775768814603" y="3" transform="rotate(180 56.52775768814603 0)" font-family="sans-serif">DIRECTED</text></g><g class="relationship" transform="translate(0.4957180335407435 55.14892274648651) rotate(529.026009202503)"><path class="outline" fill="#A5ABB6" stroke="none" d="M 25 0.5 L 26.112450505360833 0.5 L 26.112450505360833 -0.5 L 25 -0.5 Z M 69.88979425536084 0.5 L 71.00224476072167 0.5 L 71.00224476072167 3.5 L 78.00224476072167 0 L 71.00224476072167 -3.5 L 71.00224476072167 -0.5 L 69.88979425536084 -0.5 Z"/><text text-anchor="middle" pointer-events="none" font-size="8px" fill="#000000" x="48.00112238036083" y="3" transform="rotate(180 48.00112238036083 0)" font-family="sans-serif">DIRECT…</text></g><g class="relationship" transform="translate(0.4957180335407435 55.14892274648651) rotate(473.5769326135803)"><path class="outline" fill="#A5ABB6" stroke="none" d="M 25 0.5 L 50.884205442292895 0.5 L 50.884205442292895 -0.5 L 25 -0.5 Z M 97.7748304422929 0.5 L 123.65903588458579 0.5 L 123.65903588458579 3.5 L 130.6590358845858 0 L 123.65903588458579 -3.5 L 123.65903588458579 -0.5 L 97.7748304422929 -0.5 Z"/><text text-anchor="middle" pointer-events="none" font-size="8px" fill="#000000" x="74.3295179422929" y="3" transform="rotate(180 74.3295179422929 0)" font-family="sans-serif">DIRECTED</text></g><g class="relationship" transform="translate(283.8457907671382 156.14788302424245) rotate(182.26318924538145)"><path class="outline" fill="#A5ABB6" stroke="none" d="M 25 0.5 L 42.77239183110132 0.5 L 42.77239183110132 -0.5 L 25 -0.5 Z M 91.44426683110132 0.5 L 109.21665866220263 0.5 L 109.21665866220263 3.5 L 116.21665866220263 0 L 109.21665866220263 -3.5 L 109.21665866220263 -0.5 L 91.44426683110132 -0.5 Z"/><text text-anchor="middle" pointer-events="none" font-size="8px" fill="#000000" x="67.10832933110132" y="3" transform="rotate(180 67.10832933110132 0)" font-family="sans-serif">REVIEWED</text></g><g class="relationship" transform="translate(265.04082413529085 92.39261738819845) rotate(514.5596429658269)"><path class="outline" fill="#A5ABB6" stroke="none" d="M 25 0.5 L 41.43584720835348 0.5 L 41.43584720835348 -0.5 L 25 -0.5 Z M 86.99834720835348 0.5 L 103.43419441670696 0.5 L 103.43419441670696 3.5 L 110.43419441670696 0 L 103.43419441670696 -3.5 L 103.43419441670696 -0.5 L 86.99834720835348 -0.5 Z"/><text text-anchor="middle" pointer-events="none" font-size="8px" fill="#000000" x="64.21709720835348" y="3" transform="rotate(180 64.21709720835348 0)" font-family="sans-serif">ACTED_IN</text></g><g class="relationship" transform="translate(27.469798950606584 154.91781013371596) rotate(290.5630811048652)"><path class="outline" fill="#A5ABB6" stroke="none" d="M 24.018736134675446,6.953439040707552 L 24.277555179777966,5.987513214418485 A 214.42558529320823 214.42558529320823 0 0 0 59.65780568215152,12.348116384070948 L 59.56398677196291,13.343705662885782 A 215.42558529320823 215.42558529320823 0 0 1 24.018736134675446,6.953439040707552 Z M 95.37720728887992,13.728148311758815 L 95.30478215489813,12.730774460102538 A 214.42558529320823 214.42558529320823 0 0 0 130.81342171764334,7.131139231309609 L 130.0993496365957,4.217361432116908 L 137.73124859593426,5.950600675397179 L 131.7655178257069,11.016176296899877 L 131.05144574465925,8.102398497707176 A 215.42558529320823 215.42558529320823 0 0 1 95.37720728887992,13.728148311758815"/><text text-anchor="middle" pointer-events="none" font-size="8px" fill="#000000" x="77.46796082731484" y="16.781505680164372" font-family="sans-serif">WROTE</text></g><g class="relationship" transform="translate(27.469798950606584 154.91781013371596) rotate(290.5630811048652)"><path class="outline" fill="#A5ABB6" stroke="none" d="M 24.018736134675446,-6.953439040707552 L 24.277555179777966,-5.987513214418485 A 214.42558529320823 214.42558529320823 0 0 1 51.723526023184604,-11.451104160120252 L 51.59270462727062,-12.442510112478374 A 215.42558529320823 215.42558529320823 0 0 0 24.018736134675446,-6.953439040707552 Z M 103.36599835935274,-12.998278677716513 L 103.25648946366456,-12.004292862040472 A 214.42558529320823 214.42558529320823 0 0 1 130.81342171764334,-7.131139231309609 L 130.0993496365957,-4.217361432116908 L 137.73124859593426,-5.950600675397179 L 131.7655178257069,-11.016176296899877 L 131.05144574465925,-8.102398497707176 A 215.42558529320823 215.42558529320823 0 0 0 103.36599835935274,-12.998278677716513"/><text text-anchor="middle" pointer-events="none" font-size="8px" fill="#000000" x="77.46796082731481" y="-10.781505680164372" font-family="sans-serif">PRODUCED</text></g><g class="relationship" transform="translate(27.469798950606584 154.91781013371596) rotate(357.84052996129253)"><path class="outline" fill="#A5ABB6" stroke="none" d="M 25 0.5 L 30.730390588956347 0.5 L 30.730390588956347 -0.5 L 25 -0.5 Z M 77.62101558895634 0.5 L 83.3514061779127 0.5 L 83.3514061779127 3.5 L 90.3514061779127 0 L 83.3514061779127 -3.5 L 83.3514061779127 -0.5 L 77.62101558895634 -0.5 Z"/><text text-anchor="middle" pointer-events="none" font-size="8px" fill="#000000" x="54.17570308895635" y="3" font-family="sans-serif">DIRECTED</text></g><g class="relationship" transform="translate(27.469798950606584 154.91781013371596) rotate(190.16215813648262)"><path class="outline" fill="#A5ABB6" stroke="none" d="M 25 0.5 L 32.81914515079864 0.5 L 32.81914515079864 -0.5 L 25 -0.5 Z M 79.70977015079865 0.5 L 87.52891530159728 0.5 L 87.52891530159728 3.5 L 94.52891530159728 0 L 87.52891530159728 -3.5 L 87.52891530159728 -0.5 L 79.70977015079865 -0.5 Z"/><text text-anchor="middle" pointer-events="none" font-size="8px" fill="#000000" x="56.26445765079864" y="3" transform="rotate(180 56.26445765079864 0)" font-family="sans-serif">DIRECTED</text></g><g class="relationship" transform="translate(27.469798950606584 154.91781013371596) rotate(212.03851298873627)"><path class="outline" fill="#A5ABB6" stroke="none" d="M 25 0.5 L 48.608568122232626 0.5 L 48.608568122232626 -0.5 L 25 -0.5 Z M 95.49919312223263 0.5 L 119.10776124446525 0.5 L 119.10776124446525 3.5 L 126.10776124446525 0 L 119.10776124446525 -3.5 L 119.10776124446525 -0.5 L 95.49919312223263 -0.5 Z"/><text text-anchor="middle" pointer-events="none" font-size="8px" fill="#000000" x="72.05388062223263" y="3" transform="rotate(180 72.05388062223263 0)" font-family="sans-serif">DIRECTED</text></g><g class="relationship" transform="translate(27.469798950606584 154.91781013371596) rotate(514.3257489168159)"><path class="outline" fill="#A5ABB6" stroke="none" d="M 25 0.5 L 26.55950464305309 0.5 L 26.55950464305309 -0.5 L 25 -0.5 Z M 65.45012964305309 0.5 L 67.00963428610618 0.5 L 67.00963428610618 3.5 L 74.00963428610618 0 L 67.00963428610618 -3.5 L 67.00963428610618 -0.5 L 65.45012964305309 -0.5 Z"/><text text-anchor="middle" pointer-events="none" font-size="8px" fill="#000000" x="46.00481714305309" y="3" transform="rotate(180 46.00481714305309 0)" font-family="sans-serif">DIREC…</text></g><g class="relationship" transform="translate(-14.949461517251173 112.35709487340142) rotate(312.30692424931624)"><path class="outline" fill="#A5ABB6" stroke="none" d="M 25 0.5 L 44.39044493930302 0.5 L 44.39044493930302 -0.5 L 25 -0.5 Z M 96.17169493930302 0.5 L 115.56213987860605 0.5 L 115.56213987860605 3.5 L 122.56213987860605 0 L 115.56213987860605 -3.5 L 115.56213987860605 -0.5 L 96.17169493930302 -0.5 Z"/><text text-anchor="middle" pointer-events="none" font-size="8px" fill="#000000" x="70.28106993930302" y="3" font-family="sans-serif">PRODUCED</text></g><g class="relationship" transform="translate(-14.949461517251173 112.35709487340142) rotate(524.0714396846555)"><path class="outline" fill="#A5ABB6" stroke="none" d="M 25 0.5 L 25.951293445559756 0.5 L 25.951293445559756 -0.5 L 25 -0.5 Z M 45.287230945559756 0.5 L 46.23852439111951 0.5 L 46.23852439111951 3.5 L 53.23852439111951 0 L 46.23852439111951 -3.5 L 46.23852439111951 -0.5 L 45.287230945559756 -0.5 Z"/><text text-anchor="middle" pointer-events="none" font-size="8px" fill="#000000" x="35.619262195559756" y="3" transform="rotate(180 35.619262195559756 0)" font-family="sans-serif">P…</text></g><g class="relationship" transform="translate(-14.949461517251173 112.35709487340142) rotate(203.69566273607995)"><path class="outline" fill="#A5ABB6" stroke="none" d="M 25 0.5 L 27.612739145707884 0.5 L 27.612739145707884 -0.5 L 25 -0.5 Z M 58.948676645707884 0.5 L 61.56141579141577 0.5 L 61.56141579141577 3.5 L 68.56141579141577 0 L 61.56141579141577 -3.5 L 61.56141579141577 -0.5 L 58.948676645707884 -0.5 Z"/><text text-anchor="middle" pointer-events="none" font-size="8px" fill="#000000" x="43.280707895707884" y="3" transform="rotate(180 43.280707895707884 0)" font-family="sans-serif">PRO…</text></g><g class="relationship" transform="translate(-14.949461517251173 112.35709487340142) rotate(478.7149404956663)"><path class="outline" fill="#A5ABB6" stroke="none" d="M 25 0.5 L 26.663431851114467 0.5 L 26.663431851114467 -0.5 L 25 -0.5 Z M 63.77671310111447 0.5 L 65.44014495222893 0.5 L 65.44014495222893 3.5 L 72.44014495222893 0 L 65.44014495222893 -3.5 L 65.44014495222893 -0.5 L 63.77671310111447 -0.5 Z"/><text text-anchor="middle" pointer-events="none" font-size="8px" fill="#000000" x="45.22007247611447" y="3" transform="rotate(180 45.22007247611447 0)" font-family="sans-serif">PROD…</text></g><g class="relationship" transform="translate(140.9368098344423 -122.85024875985906) rotate(474.1622961508784)"><path class="outline" fill="#A5ABB6" stroke="none" d="M 25 0.5 L 42.14676689147696 0.5 L 42.14676689147696 -0.5 L 25 -0.5 Z M 89.03739189147696 0.5 L 106.18415878295392 0.5 L 106.18415878295392 3.5 L 113.18415878295392 0 L 106.18415878295392 -3.5 L 106.18415878295392 -0.5 L 89.03739189147696 -0.5 Z"/><text text-anchor="middle" pointer-events="none" font-size="8px" fill="#000000" x="65.59207939147696" y="3" transform="rotate(180 65.59207939147696 0)" font-family="sans-serif">DIRECTED</text></g><g class="relationship" transform="translate(194.14073347513204 -84.60783394977963) rotate(501.3329633404797)"><path class="outline" fill="#A5ABB6" stroke="none" d="M 25 0.5 L 44.01027545496281 0.5 L 44.01027545496281 -0.5 L 25 -0.5 Z M 89.57277545496281 0.5 L 108.58305090992562 0.5 L 108.58305090992562 3.5 L 115.58305090992562 0 L 108.58305090992562 -3.5 L 108.58305090992562 -0.5 L 89.57277545496281 -0.5 Z"/><text text-anchor="middle" pointer-events="none" font-size="8px" fill="#000000" x="66.79152545496281" y="3" transform="rotate(180 66.79152545496281 0)" font-family="sans-serif">ACTED_IN</text></g><g class="relationship" transform="translate(74.59226251703657 -134.0806096345214) rotate(445.92480137862503)"><path class="outline" fill="#A5ABB6" stroke="none" d="M 25 0.5 L 42.54685236848367 0.5 L 42.54685236848367 -0.5 L 25 -0.5 Z M 88.10935236848367 0.5 L 105.65620473696734 0.5 L 105.65620473696734 3.5 L 112.65620473696734 0 L 105.65620473696734 -3.5 L 105.65620473696734 -0.5 L 88.10935236848367 -0.5 Z"/><text text-anchor="middle" pointer-events="none" font-size="8px" fill="#000000" x="65.32810236848367" y="3" font-family="sans-serif">ACTED_IN</text></g><g class="relationship" transform="translate(217.248227539246 -22.373921715385862) rotate(529.0941370095733)"><path class="outline" fill="#A5ABB6" stroke="none" d="M 25 0.5 L 41.3773748534866 0.5 L 41.3773748534866 -0.5 L 25 -0.5 Z M 86.9398748534866 0.5 L 103.3172497069732 0.5 L 103.3172497069732 3.5 L 110.3172497069732 0 L 103.3172497069732 -3.5 L 103.3172497069732 -0.5 L 86.9398748534866 -0.5 Z"/><text text-anchor="middle" pointer-events="none" font-size="8px" fill="#000000" x="64.1586248534866" y="3" transform="rotate(180 64.1586248534866 0)" font-family="sans-serif">ACTED_IN</text></g><g class="relationship" transform="translate(6.224105060518093 -107.10755063221475) rotate(414.68990718471554)"><path class="outline" fill="#A5ABB6" stroke="none" d="M 25 0.5 L 41.32307748698341 0.5 L 41.32307748698341 -0.5 L 25 -0.5 Z M 86.88557748698341 0.5 L 103.20865497396682 0.5 L 103.20865497396682 3.5 L 110.20865497396682 0 L 103.20865497396682 -3.5 L 103.20865497396682 -0.5 L 86.88557748698341 -0.5 Z"/><text text-anchor="middle" pointer-events="none" font-size="8px" fill="#000000" x="64.10432748698341" y="3" font-family="sans-serif">ACTED_IN</text></g><g class="relationship" transform="translate(-190.86401016530155 110.21403869149094) rotate(373.20023750374855)"><path class="outline" fill="#A5ABB6" stroke="none" d="M 25 0.5 L 25.42494402404904 0.5 L 25.42494402404904 -0.5 L 25 -0.5 Z M 70.98744402404904 0.5 L 71.41238804809808 0.5 L 71.41238804809808 3.5 L 78.41238804809808 0 L 71.41238804809808 -3.5 L 71.41238804809808 -0.5 L 70.98744402404904 -0.5 Z"/><text text-anchor="middle" pointer-events="none" font-size="8px" fill="#000000" x="48.20619402404904" y="3" font-family="sans-serif">ACTED_IN</text></g><g class="relationship" transform="translate(-190.86401016530155 110.21403869149094) rotate(338.54927442041026)"><path class="outline" fill="#A5ABB6" stroke="none" d="M 25 0.5 L 27.310526238132297 0.5 L 27.310526238132297 -0.5 L 25 -0.5 Z M 62.6464637381323 0.5 L 64.9569899762646 0.5 L 64.9569899762646 3.5 L 71.9569899762646 0 L 64.9569899762646 -3.5 L 64.9569899762646 -0.5 L 62.6464637381323 -0.5 Z"/><text text-anchor="middle" pointer-events="none" font-size="8px" fill="#000000" x="44.9784949881323" y="3" font-family="sans-serif">ACTE…</text></g><g class="relationship" transform="translate(-190.86401016530155 110.21403869149094) rotate(394.1588015346193)"><path class="outline" fill="#A5ABB6" stroke="none" d="M 25 0.5 L 51.725777306034004 0.5 L 51.725777306034004 -0.5 L 25 -0.5 Z M 97.288277306034 0.5 L 124.01405461206801 0.5 L 124.01405461206801 3.5 L 131.014054612068 0 L 124.01405461206801 -3.5 L 124.01405461206801 -0.5 L 97.288277306034 -0.5 Z"/><text text-anchor="middle" pointer-events="none" font-size="8px" fill="#000000" x="74.507027306034" y="3" font-family="sans-serif">ACTED_IN</text></g><g class="relationship" transform="translate(-152.74694215575664 219.16016505770526) rotate(306.2479834121524)"><path class="outline" fill="#A5ABB6" stroke="none" d="M 25 0.5 L 26.623312667865136 0.5 L 26.623312667865136 -0.5 L 25 -0.5 Z M 72.18581266786514 0.5 L 73.80912533573027 0.5 L 73.80912533573027 3.5 L 80.80912533573027 0 L 73.80912533573027 -3.5 L 73.80912533573027 -0.5 L 72.18581266786514 -0.5 Z"/><text text-anchor="middle" pointer-events="none" font-size="8px" fill="#000000" x="49.404562667865136" y="3" font-family="sans-serif">ACTED_IN</text></g><g class="relationship" transform="translate(-152.74694215575664 219.16016505770526) rotate(289.8475893411246)"><path class="outline" fill="#A5ABB6" stroke="none" d="M 25 0.5 L 50.480140240884154 0.5 L 50.480140240884154 -0.5 L 25 -0.5 Z M 96.04264024088415 0.5 L 121.52278048176831 0.5 L 121.52278048176831 3.5 L 128.5227804817683 0 L 121.52278048176831 -3.5 L 121.52278048176831 -0.5 L 96.04264024088415 -0.5 Z"/><text text-anchor="middle" pointer-events="none" font-size="8px" fill="#000000" x="73.26139024088415" y="3" font-family="sans-serif">ACTED_IN</text></g><g class="relationship" transform="translate(-152.74694215575664 219.16016505770526) rotate(346.796206463192)"><path class="outline" fill="#A5ABB6" stroke="none" d="M 25 0.5 L 25.558373019592587 0.5 L 25.558373019592587 -0.5 L 25 -0.5 Z M 60.89431051959259 0.5 L 61.45268353918517 0.5 L 61.45268353918517 3.5 L 68.45268353918517 0 L 61.45268353918517 -3.5 L 61.45268353918517 -0.5 L 60.89431051959259 -0.5 Z"/><text text-anchor="middle" pointer-events="none" font-size="8px" fill="#000000" x="43.22634176959259" y="3" font-family="sans-serif">ACTE…</text></g><g class="relationship" transform="translate(-186.97379586314472 169.98276388480588) rotate(339.5177781594101)"><path class="outline" fill="#A5ABB6" stroke="none" d="M 25 0.5 L 25.379611414742037 0.5 L 25.379611414742037 -0.5 L 25 -0.5 Z M 70.94211141474204 0.5 L 71.32172282948407 0.5 L 71.32172282948407 3.5 L 78.32172282948407 0 L 71.32172282948407 -3.5 L 71.32172282948407 -0.5 L 70.94211141474204 -0.5 Z"/><text text-anchor="middle" pointer-events="none" font-size="8px" fill="#000000" x="48.16086141474204" y="3" font-family="sans-serif">ACTED_IN</text></g><g class="relationship" transform="translate(-186.97379586314472 169.98276388480588) rotate(312.20169951007733)"><path class="outline" fill="#A5ABB6" stroke="none" d="M 25 0.5 L 37.99247920422562 0.5 L 37.99247920422562 -0.5 L 25 -0.5 Z M 83.55497920422562 0.5 L 96.54745840845123 0.5 L 96.54745840845123 3.5 L 103.54745840845123 0 L 96.54745840845123 -3.5 L 96.54745840845123 -0.5 L 83.55497920422562 -0.5 Z"/><text text-anchor="middle" pointer-events="none" font-size="8px" fill="#000000" x="60.77372920422562" y="3" font-family="sans-serif">ACTED_IN</text></g><g class="relationship" transform="translate(-186.97379586314472 169.98276388480588) rotate(372.5319268686059)"><path class="outline" fill="#A5ABB6" stroke="none" d="M 25 0.5 L 37.851190263662204 0.5 L 37.851190263662204 -0.5 L 25 -0.5 Z M 83.4136902636622 0.5 L 96.26488052732441 0.5 L 96.26488052732441 3.5 L 103.26488052732441 0 L 96.26488052732441 -3.5 L 96.26488052732441 -0.5 L 83.4136902636622 -0.5 Z"/><text text-anchor="middle" pointer-events="none" font-size="8px" fill="#000000" x="60.632440263662204" y="3" font-family="sans-serif">ACTED_IN</text></g><g class="relationship" transform="translate(-65.50951228080439 332.58926157309793) rotate(271.591550082343)"><path class="outline" fill="#A5ABB6" stroke="none" d="M 25 0.5 L 41.13231770182759 0.5 L 41.13231770182759 -0.5 L 25 -0.5 Z M 86.69481770182759 0.5 L 102.82713540365518 0.5 L 102.82713540365518 3.5 L 109.82713540365518 0 L 102.82713540365518 -3.5 L 102.82713540365518 -0.5 L 86.69481770182759 -0.5 Z"/><text text-anchor="middle" pointer-events="none" font-size="8px" fill="#000000" x="63.91356770182759" y="3" font-family="sans-serif">ACTED_IN</text></g></g><g class="layer nodes"><g class="node" transform="translate(42.610616926503944,97.48645701679202)"><circle class="outline" cx="0" cy="0" r="25" fill="#57C7E3" stroke="#23b3d7" stroke-width="2px"/><text text-anchor="middle" pointer-events="none" font-family="sans-serif" dy="1.5625" font-size="25" fill="#2A2C34"/><text text-anchor="middle" pointer-events="none" font-family="sans-serif" dy="1.5625" font-size="25" fill="#2A2C34"/><text text-anchor="middle" pointer-events="none" x="0" y="0" font-size="10px" fill="#2A2C34" font-family="sans-serif"> Hugo</text><text text-anchor="middle" pointer-events="none" x="0" y="10" font-size="10px" fill="#2A2C34" font-family="sans-serif"> Weaving</text></g><g class="node" transform="translate(142.73928500712466,150.57126075656876)"><circle class="outline" cx="0" cy="0" r="25" fill="#F79767" stroke="#f36924" stroke-width="2px"/><text text-anchor="middle" pointer-events="none" font-family="sans-serif" dy="1.5625" font-size="25" fill="#FFFFFF"/><text text-anchor="middle" pointer-events="none" font-family="sans-serif" dy="1.5625" font-size="25" fill="#FFFFFF"/><text text-anchor="middle" pointer-events="none" x="0" y="0" font-size="10px" fill="#FFFFFF" font-family="sans-serif"> Cloud</text><text text-anchor="middle" pointer-events="none" x="0" y="10" font-size="10px" fill="#FFFFFF" font-family="sans-serif"> Atlas</text></g><g class="node" transform="translate(224.02222648394985,264.33750152807386)"><circle class="outline" cx="0" cy="0" r="25" fill="#57C7E3" stroke="#23b3d7" stroke-width="2px"/><text text-anchor="middle" pointer-events="none" font-family="sans-serif" dy="1.5625" font-size="25" fill="#2A2C34"/><text text-anchor="middle" pointer-events="none" font-family="sans-serif" dy="1.5625" font-size="25" fill="#2A2C34"/><text text-anchor="middle" pointer-events="none" x="0" y="0" font-size="10px" fill="#2A2C34" font-family="sans-serif"> Tom</text><text text-anchor="middle" pointer-events="none" x="0" y="10" font-size="10px" fill="#2A2C34" font-family="sans-serif"> Hanks</text></g><g class="node" transform="translate(157.31220371098817,286.6644146408487)"><circle class="outline" cx="0" cy="0" r="25" fill="#57C7E3" stroke="#23b3d7" stroke-width="2px"/><text text-anchor="middle" pointer-events="none" font-family="sans-serif" dy="1.5625" font-size="25" fill="#2A2C34"/><text text-anchor="middle" pointer-events="none" font-family="sans-serif" dy="1.5625" font-size="25" fill="#2A2C34"/><text text-anchor="middle" pointer-events="none" x="0" y="0" font-size="10px" fill="#2A2C34" font-family="sans-serif"> Jim</text><text text-anchor="middle" pointer-events="none" x="0" y="10" font-size="10px" fill="#2A2C34" font-family="sans-serif"> Broadb…</text></g><g class="node" transform="translate(266.41452917056404,217.55694334389318)"><circle class="outline" cx="0" cy="0" r="25" fill="#57C7E3" stroke="#23b3d7" stroke-width="2px"/><text text-anchor="middle" pointer-events="none" font-family="sans-serif" dy="1.5625" font-size="25" fill="#2A2C34"/><text text-anchor="middle" pointer-events="none" font-family="sans-serif" dy="1.5625" font-size="25" fill="#2A2C34"/><text text-anchor="middle" pointer-events="none" x="0" y="0" font-size="10px" fill="#2A2C34" font-family="sans-serif"> Tom</text><text text-anchor="middle" pointer-events="none" x="0" y="10" font-size="10px" fill="#2A2C34" font-family="sans-serif"> Tykwer</text></g><g class="node" transform="translate(0.4957180335407435,55.14892274648651)"><circle class="outline" cx="0" cy="0" r="25" fill="#57C7E3" stroke="#23b3d7" stroke-width="2px"/><text text-anchor="middle" pointer-events="none" font-family="sans-serif" dy="1.5625" font-size="25" fill="#2A2C34"/><text text-anchor="middle" pointer-events="none" font-family="sans-serif" dy="1.5625" font-size="25" fill="#2A2C34"/><text text-anchor="middle" pointer-events="none" x="0" y="0" font-size="10px" fill="#2A2C34" font-family="sans-serif"> Lana</text><text text-anchor="middle" pointer-events="none" x="0" y="10" font-size="10px" fill="#2A2C34" font-family="sans-serif"> Wacho…</text></g><g class="node" transform="translate(283.8457907671382,156.14788302424245)"><circle class="outline" cx="0" cy="0" r="25" fill="#57C7E3" stroke="#23b3d7" stroke-width="2px"/><text text-anchor="middle" pointer-events="none" font-family="sans-serif" dy="1.5625" font-size="25" fill="#2A2C34"/><text text-anchor="middle" pointer-events="none" font-family="sans-serif" dy="1.5625" font-size="25" fill="#2A2C34"/><text text-anchor="middle" pointer-events="none" x="0" y="0" font-size="10px" fill="#2A2C34" font-family="sans-serif"> Jessica</text><text text-anchor="middle" pointer-events="none" x="0" y="10" font-size="10px" fill="#2A2C34" font-family="sans-serif"> Thomp…</text></g><g class="node" transform="translate(265.04082413529085,92.39261738819845)"><circle class="outline" cx="0" cy="0" r="25" fill="#57C7E3" stroke="#23b3d7" stroke-width="2px"/><text text-anchor="middle" pointer-events="none" font-family="sans-serif" dy="1.5625" font-size="25" fill="#2A2C34"/><text text-anchor="middle" pointer-events="none" font-family="sans-serif" dy="1.5625" font-size="25" fill="#2A2C34"/><text text-anchor="middle" pointer-events="none" x="0" y="0" font-size="10px" fill="#2A2C34" font-family="sans-serif"> Halle</text><text text-anchor="middle" pointer-events="none" x="0" y="10" font-size="10px" fill="#2A2C34" font-family="sans-serif"> Berry</text></g><g class="node" transform="translate(27.469798950606584,154.91781013371596)"><circle class="outline" cx="0" cy="0" r="25" fill="#57C7E3" stroke="#23b3d7" stroke-width="2px"/><text text-anchor="middle" pointer-events="none" font-family="sans-serif" dy="1.5625" font-size="25" fill="#2A2C34"/><text text-anchor="middle" pointer-events="none" font-family="sans-serif" dy="1.5625" font-size="25" fill="#2A2C34"/><text text-anchor="middle" pointer-events="none" x="0" y="0" font-size="10px" fill="#2A2C34" font-family="sans-serif"> Andy</text><text text-anchor="middle" pointer-events="none" x="0" y="10" font-size="10px" fill="#2A2C34" font-family="sans-serif"> Wacho…</text></g><g class="node" transform="translate(84.37489427560043,3.2275504232923806)"><circle class="outline" cx="0" cy="0" r="25" fill="#F79767" stroke="#f36924" stroke-width="2px"/><text text-anchor="middle" pointer-events="none" font-family="sans-serif" dy="1.5625" font-size="25" fill="#FFFFFF"/><text text-anchor="middle" pointer-events="none" font-family="sans-serif" dy="1.5625" font-size="25" fill="#FFFFFF"/><text text-anchor="middle" pointer-events="none" x="0" y="0" font-size="10px" fill="#FFFFFF" font-family="sans-serif"> V for</text><text text-anchor="middle" pointer-events="none" x="0" y="10" font-size="10px" fill="#FFFFFF" font-family="sans-serif"> Vendetta</text></g><g class="node" transform="translate(-14.949461517251173,112.35709487340142)"><circle class="outline" cx="0" cy="0" r="25" fill="#57C7E3" stroke="#23b3d7" stroke-width="2px"/><text text-anchor="middle" pointer-events="none" font-family="sans-serif" dy="1.5625" font-size="25" fill="#2A2C34"/><text text-anchor="middle" pointer-events="none" x="0" y="5" font-size="10px" fill="#2A2C34" font-family="sans-serif"> Joel Silver</text></g><g class="node" transform="translate(140.9368098344423,-122.85024875985906)"><circle class="outline" cx="0" cy="0" r="25" fill="#57C7E3" stroke="#23b3d7" stroke-width="2px"/><text text-anchor="middle" pointer-events="none" font-family="sans-serif" dy="1.5625" font-size="25" fill="#2A2C34"/><text text-anchor="middle" pointer-events="none" font-family="sans-serif" dy="1.5625" font-size="25" fill="#2A2C34"/><text text-anchor="middle" pointer-events="none" x="0" y="0" font-size="10px" fill="#2A2C34" font-family="sans-serif"> James</text><text text-anchor="middle" pointer-events="none" x="0" y="10" font-size="10px" fill="#2A2C34" font-family="sans-serif"> Marshall</text></g><g class="node" transform="translate(194.14073347513204,-84.60783394977963)"><circle class="outline" cx="0" cy="0" r="25" fill="#57C7E3" stroke="#23b3d7" stroke-width="2px"/><text text-anchor="middle" pointer-events="none" font-family="sans-serif" dy="1.5625" font-size="25" fill="#2A2C34"/><text text-anchor="middle" pointer-events="none" x="0" y="5" font-size="10px" fill="#2A2C34" font-family="sans-serif"> Ben Miles</text></g><g class="node" transform="translate(74.59226251703657,-134.0806096345214)"><circle class="outline" cx="0" cy="0" r="25" fill="#57C7E3" stroke="#23b3d7" stroke-width="2px"/><text text-anchor="middle" pointer-events="none" font-family="sans-serif" dy="1.5625" font-size="25" fill="#2A2C34"/><text text-anchor="middle" pointer-events="none" font-family="sans-serif" dy="1.5625" font-size="25" fill="#2A2C34"/><text text-anchor="middle" pointer-events="none" x="0" y="0" font-size="10px" fill="#2A2C34" font-family="sans-serif"> Natalie</text><text text-anchor="middle" pointer-events="none" x="0" y="10" font-size="10px" fill="#2A2C34" font-family="sans-serif"> Portman</text></g><g class="node" transform="translate(217.248227539246,-22.373921715385862)"><circle class="outline" cx="0" cy="0" r="25" fill="#57C7E3" stroke="#23b3d7" stroke-width="2px"/><text text-anchor="middle" pointer-events="none" font-family="sans-serif" dy="1.5625" font-size="25" fill="#2A2C34"/><text text-anchor="middle" pointer-events="none" x="0" y="5" font-size="10px" fill="#2A2C34" font-family="sans-serif"> John Hurt</text></g><g class="node" transform="translate(6.224105060518093,-107.10755063221475)"><circle class="outline" cx="0" cy="0" r="25" fill="#57C7E3" stroke="#23b3d7" stroke-width="2px"/><text text-anchor="middle" pointer-events="none" font-family="sans-serif" dy="1.5625" font-size="25" fill="#2A2C34"/><text text-anchor="middle" pointer-events="none" font-family="sans-serif" dy="1.5625" font-size="25" fill="#2A2C34"/><text text-anchor="middle" pointer-events="none" x="0" y="0" font-size="10px" fill="#2A2C34" font-family="sans-serif"> Stephen</text><text text-anchor="middle" pointer-events="none" x="0" y="10" font-size="10px" fill="#2A2C34" font-family="sans-serif"> Rea</text></g><g class="node" transform="translate(-90.18398875336742,133.8287648237776)"><circle class="outline" cx="0" cy="0" r="25" fill="#F79767" stroke="#f36924" stroke-width="2px"/><text text-anchor="middle" pointer-events="none" font-family="sans-serif" dy="1.5625" font-size="25" fill="#FFFFFF"/><text text-anchor="middle" pointer-events="none" font-family="sans-serif" dy="1.5625" font-size="25" fill="#FFFFFF"/><text text-anchor="middle" pointer-events="none" font-family="sans-serif" dy="1.5625" font-size="25" fill="#FFFFFF"/><text text-anchor="middle" pointer-events="none" x="0" y="-5" font-size="10px" fill="#FFFFFF" font-family="sans-serif"> The</text><text text-anchor="middle" pointer-events="none" x="0" y="5" font-size="10px" fill="#FFFFFF" font-family="sans-serif"> Matrix</text><text text-anchor="middle" pointer-events="none" x="0" y="15" font-size="10px" fill="#FFFFFF" font-family="sans-serif"> Revol…</text></g><g class="node" transform="translate(-190.86401016530155,110.21403869149094)"><circle class="outline" cx="0" cy="0" r="25" fill="#57C7E3" stroke="#23b3d7" stroke-width="2px"/><text text-anchor="middle" pointer-events="none" font-family="sans-serif" dy="1.5625" font-size="25" fill="#2A2C34"/><text text-anchor="middle" pointer-events="none" font-family="sans-serif" dy="1.5625" font-size="25" fill="#2A2C34"/><text text-anchor="middle" pointer-events="none" x="0" y="0" font-size="10px" fill="#2A2C34" font-family="sans-serif"> Laurence</text><text text-anchor="middle" pointer-events="none" x="0" y="10" font-size="10px" fill="#2A2C34" font-family="sans-serif"> Fishbur…</text></g><g class="node" transform="translate(-152.74694215575664,219.16016505770526)"><circle class="outline" cx="0" cy="0" r="25" fill="#57C7E3" stroke="#23b3d7" stroke-width="2px"/><text text-anchor="middle" pointer-events="none" font-family="sans-serif" dy="1.5625" font-size="25" fill="#2A2C34"/><text text-anchor="middle" pointer-events="none" x="0" y="5" font-size="10px" fill="#2A2C34" font-family="sans-serif"> Carrie-A…</text></g><g class="node" transform="translate(-186.97379586314472,169.98276388480588)"><circle class="outline" cx="0" cy="0" r="25" fill="#57C7E3" stroke="#23b3d7" stroke-width="2px"/><text text-anchor="middle" pointer-events="none" font-family="sans-serif" dy="1.5625" font-size="25" fill="#2A2C34"/><text text-anchor="middle" pointer-events="none" font-family="sans-serif" dy="1.5625" font-size="25" fill="#2A2C34"/><text text-anchor="middle" pointer-events="none" x="0" y="0" font-size="10px" fill="#2A2C34" font-family="sans-serif"> Keanu</text><text text-anchor="middle" pointer-events="none" x="0" y="10" font-size="10px" fill="#2A2C34" font-family="sans-serif"> Reeves</text></g><g class="node" transform="translate(-100.6229967094121,74.75677715437483)"><circle class="outline" cx="0" cy="0" r="25" fill="#F79767" stroke="#f36924" stroke-width="2px"/><text text-anchor="middle" pointer-events="none" font-family="sans-serif" dy="1.5625" font-size="25" fill="#FFFFFF"/><text text-anchor="middle" pointer-events="none" font-family="sans-serif" dy="1.5625" font-size="25" fill="#FFFFFF"/><text text-anchor="middle" pointer-events="none" font-family="sans-serif" dy="1.5625" font-size="25" fill="#FFFFFF"/><text text-anchor="middle" pointer-events="none" x="0" y="-5" font-size="10px" fill="#FFFFFF" font-family="sans-serif"> The</text><text text-anchor="middle" pointer-events="none" x="0" y="5" font-size="10px" fill="#FFFFFF" font-family="sans-serif"> Matrix</text><text text-anchor="middle" pointer-events="none" x="0" y="15" font-size="10px" fill="#FFFFFF" font-family="sans-serif"> Reloa…</text></g><g class="node" transform="translate(-61.76479415981261,197.81413950915808)"><circle class="outline" cx="0" cy="0" r="25" fill="#F79767" stroke="#f36924" stroke-width="2px"/><text text-anchor="middle" pointer-events="none" font-family="sans-serif" dy="1.5625" font-size="25" fill="#FFFFFF"/><text text-anchor="middle" pointer-events="none" font-family="sans-serif" dy="1.5625" font-size="25" fill="#FFFFFF"/><text text-anchor="middle" pointer-events="none" x="0" y="0" font-size="10px" fill="#FFFFFF" font-family="sans-serif"> The</text><text text-anchor="middle" pointer-events="none" x="0" y="10" font-size="10px" fill="#FFFFFF" font-family="sans-serif"> Matrix</text></g><g class="node" transform="translate(-65.50951228080439,332.58926157309793)"><circle class="outline" cx="0" cy="0" r="25" fill="#57C7E3" stroke="#23b3d7" stroke-width="2px"/><text text-anchor="middle" pointer-events="none" font-family="sans-serif" dy="1.5625" font-size="25" fill="#2A2C34"/><text text-anchor="middle" pointer-events="none" font-family="sans-serif" dy="1.5625" font-size="25" fill="#2A2C34"/><text text-anchor="middle" pointer-events="none" x="0" y="0" font-size="10px" fill="#2A2C34" font-family="sans-serif"> Emil</text><text text-anchor="middle" pointer-events="none" x="0" y="10" font-size="10px" fill="#2A2C34" font-family="sans-serif"> Eifrem</text></g></g></svg>