<svg xmlns="http://www.w3.org/2000/svg" width="237.74501037597656" height="246.5814666748047" viewBox="-9.556720733642578 -10.948333740234375 237.74501037597656 246.5814666748047"><title>Neo4j Graph Visualization</title><desc>Created using Neo4j (http://www.neo4j.com/)</desc><g class="layer relationships"><g class="relationship" transform="translate(125.33737285163494 126.97084067329956) rotate(407.641511124302)"><path class="outline" fill="#A5ABB6" stroke="none" d="M 25 0.5 L 27.621564845699027 0.5 L 27.621564845699027 -0.5 L 25 -0.5 Z M 73.18406484569903 0.5 L 75.80562969139805 0.5 L 75.80562969139805 3.5 L 82.80562969139805 0 L 75.80562969139805 -3.5 L 75.80562969139805 -0.5 L 73.18406484569903 -0.5 Z"/><text text-anchor="middle" pointer-events="none" font-size="8px" fill="#000000" x="50.40281484569903" y="3" font-family="sans-serif">ACTED_IN</text></g><g class="relationship" transform="translate(125.33737285163494 126.97084067329956) rotate(310.84447632406585)"><path class="outline" fill="#A5ABB6" stroke="none" d="M 25 0.5 L 30.179001159016487 0.5 L 30.179001159016487 -0.5 L 25 -0.5 Z M 75.74150115901648 0.5 L 80.92050231803297 0.5 L 80.92050231803297 3.5 L 87.92050231803297 0 L 80.92050231803297 -3.5 L 80.92050231803297 -0.5 L 75.74150115901648 -0.5 Z"/><text text-anchor="middle" pointer-events="none" font-size="8px" fill="#000000" x="52.96025115901649" y="3" font-family="sans-serif">ACTED_IN</text></g><g class="relationship" transform="translate(125.33737285163494 126.97084067329956) rotate(254.13514160832125)"><path class="outline" fill="#A5ABB6" stroke="none" d="M 25 0.5 L 30.334893909085174 0.5 L 30.334893909085174 -0.5 L 25 -0.5 Z M 75.89739390908517 0.5 L 81.23228781817035 0.5 L 81.23228781817035 3.5 L 88.23228781817035 0 L 81.23228781817035 -3.5 L 81.23228781817035 -0.5 L 75.89739390908517 -0.5 Z"/><text text-anchor="middle" pointer-events="none" font-size="8px" fill="#000000" x="53.116143909085174" y="3" transform="rotate(180 53.116143909085174 0)" font-family="sans-serif">ACTED_IN</text></g><g class="relationship" transform="translate(125.33737285163494 126.97084067329956) rotate(200.74908884227523)"><path class="outline" fill="#A5ABB6" stroke="none" d="M 25 0.5 L 30.338079028732444 0.5 L 30.338079028732444 -0.5 L 25 -0.5 Z M 75.90057902873244 0.5 L 81.23865805746489 0.5 L 81.23865805746489 3.5 L 88.23865805746489 0 L 81.23865805746489 -3.5 L 81.23865805746489 -0.5 L 75.90057902873244 -0.5 Z"/><text text-anchor="middle" pointer-events="none" font-size="8px" fill="#000000" x="53.119329028732444" y="3" transform="rotate(180 53.119329028732444 0)" font-family="sans-serif">ACTED_IN</text></g><g class="relationship" transform="translate(125.33737285163494 126.97084067329956) rotate(504.1036824679958)"><path class="outline" fill="#A5ABB6" stroke="none" d="M 25 0.5 L 30.19331658441901 0.5 L 30.19331658441901 -0.5 L 25 -0.5 Z M 75.75581658441901 0.5 L 80.94913316883802 0.5 L 80.94913316883802 3.5 L 87.94913316883802 0 L 80.94913316883802 -3.5 L 80.94913316883802 -0.5 L 75.75581658441901 -0.5 Z"/><text text-anchor="middle" pointer-events="none" font-size="8px" fill="#000000" x="52.97456658441901" y="3" transform="rotate(180 52.97456658441901 0)" font-family="sans-serif">ACTED_IN</text></g></g><g class="layer nodes"><g class="node" transform="translate(125.33737285163494,126.97084067329956)"><circle class="outline" cx="0" cy="0" r="25" fill="#57C7E3" stroke="#23b3d7" stroke-width="2px"/><text text-anchor="middle" pointer-events="none" font-family="sans-serif" dy="1.5625" font-size="25" fill="#2A2C34"/><text text-anchor="middle" pointer-events="none" font-family="sans-serif" dy="1.5625" font-size="25" fill="#2A2C34"/><text text-anchor="middle" pointer-events="none" x="0" y="0" font-size="10px" fill="#2A2C34" font-family="sans-serif"> Hugo</text><text text-anchor="middle" pointer-events="none" x="0" y="10" font-size="10px" fill="#2A2C34" font-family="sans-serif"> Weaving</text></g><g class="node" transform="translate(197.97326962610052,206.63312969971423)"><circle class="outline" cx="0" cy="0" r="25" fill="#F79767" stroke="#f36924" stroke-width="2px"/><text text-anchor="middle" pointer-events="none" font-family="sans-serif" dy="1.5625" font-size="25" fill="#FFFFFF"/><text text-anchor="middle" pointer-events="none" font-family="sans-serif" dy="1.5625" font-size="25" fill="#FFFFFF"/><text text-anchor="middle" pointer-events="none" x="0" y="0" font-size="10px" fill="#FFFFFF" font-family="sans-serif"> Cloud</text><text text-anchor="middle" pointer-events="none" x="0" y="10" font-size="10px" fill="#FFFFFF" font-family="sans-serif"> Atlas</text></g><g class="node" transform="translate(199.1882882043561,41.54788037969874)"><circle class="outline" cx="0" cy="0" r="25" fill="#F79767" stroke="#f36924" stroke-width="2px"/><text text-anchor="middle" pointer-events="none" font-family="sans-serif" dy="1.5625" font-size="25" fill="#FFFFFF"/><text text-anchor="middle" pointer-events="none" font-family="sans-serif" dy="1.5625" font-size="25" fill="#FFFFFF"/><text text-anchor="middle" pointer-events="none" x="0" y="0" font-size="10px" fill="#FFFFFF" font-family="sans-serif"> V for</text><text text-anchor="middle" pointer-events="none" x="0" y="10" font-size="10px" fill="#FFFFFF" font-family="sans-serif"> Vendetta</text></g><g class="node" transform="translate(94.38314205852842,18.05166605035236)"><circle class="outline" cx="0" cy="0" r="25" fill="#F79767" stroke="#f36924" stroke-width="2px"/><text text-anchor="middle" pointer-events="none" font-family="sans-serif" dy="1.5625" font-size="25" fill="#FFFFFF"/><text text-anchor="middle" pointer-events="none" font-family="sans-serif" dy="1.5625" font-size="25" fill="#FFFFFF"/><text text-anchor="middle" pointer-events="none" font-family="sans-serif" dy="1.5625" font-size="25" fill="#FFFFFF"/><text text-anchor="middle" pointer-events="none" x="0" y="-5" font-size="10px" fill="#FFFFFF" font-family="sans-serif"> The</text><text text-anchor="middle" pointer-events="none" x="0" y="5" font-size="10px" fill="#FFFFFF" font-family="sans-serif"> Matrix</text><text text-anchor="middle" pointer-events="none" x="0" y="15" font-size="10px" fill="#FFFFFF" font-family="sans-serif"> Revol…</text></g><g class="node" transform="translate(19.443278610357012,86.85308296583531)"><circle class="outline" cx="0" cy="0" r="25" fill="#F79767" stroke="#f36924" stroke-width="2px"/><text text-anchor="middle" pointer-events="none" font-family="sans-serif" dy="1.5625" font-size="25" fill="#FFFFFF"/><text text-anchor="middle" pointer-events="none" font-family="sans-serif" dy="1.5625" font-size="25" fill="#FFFFFF"/><text text-anchor="middle" pointer-events="none" font-family="sans-serif" dy="1.5625" font-size="25" fill="#FFFFFF"/><text text-anchor="middle" pointer-events="none" x="0" y="-5" font-size="10px" fill="#FFFFFF" font-family="sans-serif"> The</text><text text-anchor="middle" pointer-events="none" x="0" y="5" font-size="10px" fill="#FFFFFF" font-family="sans-serif"> Matrix</text><text text-anchor="middle" pointer-events="none" x="0" y="15" font-size="10px" fill="#FFFFFF" font-family="sans-serif"> Reloa…</text></g><g class="node" transform="translate(33.83961522457375,193.19520954769104)"><circle class="outline" cx="0" cy="0" r="25" fill="#F79767" stroke="#f36924" stroke-width="2px"/><text text-anchor="middle" pointer-events="none" font-family="sans-serif" dy="1.5625" font-size="25" fill="#FFFFFF"/><text text-anchor="middle" pointer-events="none" font-family="sans-serif" dy="1.5625" font-size="25" fill="#FFFFFF"/><text text-anchor="middle" pointer-events="none" x="0" y="0" font-size="10px" fill="#FFFFFF" font-family="sans-serif"> The</text><text text-anchor="middle" pointer-events="none" x="0" y="10" font-size="10px" fill="#FFFFFF" font-family="sans-serif"> Matrix</text></g></g></svg>