<svg xmlns="http://www.w3.org/2000/svg" width="377.2725830078125" height="477.9463195800781" viewBox="-57.74728775024414 -164.81564331054688 377.2725830078125 477.9463195800781"><title>Neo4j Graph Visualization</title><desc>Created using Neo4j (http://www.neo4j.com/)</desc><g class="layer relationships"><g class="relationship" transform="translate(190.7845791085794 -26.182268446766216) rotate(330.14336713705035)"><path class="outline" fill="#A5ABB6" stroke="none" d="M 25 0.5 L 31.221185009271025 0.5 L 31.221185009271025 -0.5 L 25 -0.5 Z M 76.78368500927103 0.5 L 83.00487001854205 0.5 L 83.00487001854205 3.5 L 90.00487001854205 0 L 83.00487001854205 -3.5 L 83.00487001854205 -0.5 L 76.78368500927103 -0.5 Z"/><text text-anchor="middle" pointer-events="none" font-size="8px" fill="#000000" x="54.002435009271025" y="3" font-family="sans-serif">ACTED_IN</text></g><g class="relationship" transform="translate(190.7845791085794 -26.182268446766216) rotate(245.5680884267682)"><path class="outline" fill="#A5ABB6" stroke="none" d="M 25 0.5 L 33.926871480226914 0.5 L 33.926871480226914 -0.5 L 25 -0.5 Z M 79.48937148022691 0.5 L 88.41624296045383 0.5 L 88.41624296045383 3.5 L 95.41624296045383 0 L 88.41624296045383 -3.5 L 88.41624296045383 -0.5 L 79.48937148022691 -0.5 Z"/><text text-anchor="middle" pointer-events="none" font-size="8px" fill="#000000" x="56.708121480226914" y="3" transform="rotate(180 56.708121480226914 0)" font-family="sans-serif">ACTED_IN</text></g><g class="relationship" transform="translate(190.7845791085794 -26.182268446766216) rotate(475.26460253251184)"><path class="outline" fill="#A5ABB6" stroke="none" d="M 25 0.5 L 27.201846942088416 0.5 L 27.201846942088416 -0.5 L 25 -0.5 Z M 72.76434694208842 0.5 L 74.96619388417683 0.5 L 74.96619388417683 3.5 L 81.96619388417683 0 L 74.96619388417683 -3.5 L 74.96619388417683 -0.5 L 72.76434694208842 -0.5 Z"/><text text-anchor="middle" pointer-events="none" font-size="8px" fill="#000000" x="49.983096942088416" y="3" transform="rotate(180 49.983096942088416 0)" font-family="sans-serif">ACTED_IN</text></g><g class="relationship" transform="translate(190.7845791085794 -26.182268446766216) rotate(500.0259288533769)"><path class="outline" fill="#A5ABB6" stroke="none" d="M 25 0.5 L 42.216109802986765 0.5 L 42.216109802986765 -0.5 L 25 -0.5 Z M 87.77860980298676 0.5 L 104.99471960597353 0.5 L 104.99471960597353 3.5 L 111.99471960597353 0 L 104.99471960597353 -3.5 L 104.99471960597353 -0.5 L 87.77860980298676 -0.5 Z"/><text text-anchor="middle" pointer-events="none" font-size="8px" fill="#000000" x="64.99735980298676" y="3" transform="rotate(180 64.99735980298676 0)" font-family="sans-serif">ACTED_IN</text></g><g class="relationship" transform="translate(190.7845791085794 -26.182268446766216) rotate(442.1841088584656)"><path class="outline" fill="#A5ABB6" stroke="none" d="M 25 0.5 L 25.291679419074093 0.5 L 25.291679419074093 -0.5 L 25 -0.5 Z M 70.85417941907409 0.5 L 71.14585883814819 0.5 L 71.14585883814819 3.5 L 78.14585883814819 0 L 71.14585883814819 -3.5 L 71.14585883814819 -0.5 L 70.85417941907409 -0.5 Z"/><text text-anchor="middle" pointer-events="none" font-size="8px" fill="#000000" x="48.07292941907409" y="3" font-family="sans-serif">ACTED_IN</text></g><g class="relationship" transform="translate(108.81247678254245 -26.831749938714967) rotate(429.54717552477865)"><path class="outline" fill="#A5ABB6" stroke="none" d="M 25 0.5 L 25.68679069853159 0.5 L 25.68679069853159 -0.5 L 25 -0.5 Z M 71.24929069853158 0.5 L 71.93608139706318 0.5 L 71.93608139706318 3.5 L 78.93608139706318 0 L 71.93608139706318 -3.5 L 71.93608139706318 -0.5 L 71.24929069853158 -0.5 Z"/><text text-anchor="middle" pointer-events="none" font-size="8px" fill="#000000" x="48.46804069853159" y="3" font-family="sans-serif">ACTED_IN</text></g><g class="relationship" transform="translate(108.81247678254245 -26.831749938714967) rotate(464.550033373562)"><path class="outline" fill="#A5ABB6" stroke="none" d="M 25 0.5 L 27.2990840003853 0.5 L 27.2990840003853 -0.5 L 25 -0.5 Z M 57.2990840003853 0.5 L 59.5981680007706 0.5 L 59.5981680007706 3.5 L 66.5981680007706 0 L 59.5981680007706 -3.5 L 59.5981680007706 -0.5 L 57.2990840003853 -0.5 Z"/><text text-anchor="middle" pointer-events="none" font-size="8px" fill="#000000" x="42.2990840003853" y="3" transform="rotate(180 42.2990840003853 0)" font-family="sans-serif">ACT…</text></g><g class="relationship" transform="translate(108.81247678254245 -26.831749938714967) rotate(406.9696875412603)"><path class="outline" fill="#A5ABB6" stroke="none" d="M 25 0.5 L 44.05947964167963 0.5 L 44.05947964167963 -0.5 L 25 -0.5 Z M 89.62197964167963 0.5 L 108.68145928335926 0.5 L 108.68145928335926 3.5 L 115.68145928335926 0 L 108.68145928335926 -3.5 L 108.68145928335926 -0.5 L 89.62197964167963 -0.5 Z"/><text text-anchor="middle" pointer-events="none" font-size="8px" fill="#000000" x="66.84072964167963" y="3" font-family="sans-serif">ACTED_IN</text></g><g class="relationship" transform="translate(189.6294005235958 162.36135696040435) rotate(244.14153015437)"><path class="outline" fill="#A5ABB6" stroke="none" d="M 25 0.5 L 26.95556633121855 0.5 L 26.95556633121855 -0.5 L 25 -0.5 Z M 68.06884758121855 0.5 L 70.0244139124371 0.5 L 70.0244139124371 3.5 L 77.0244139124371 0 L 70.0244139124371 -3.5 L 70.0244139124371 -0.5 L 68.06884758121855 -0.5 Z"/><text text-anchor="middle" pointer-events="none" font-size="8px" fill="#000000" x="47.51220695621855" y="3" transform="rotate(180 47.51220695621855 0)" font-family="sans-serif">ACTED…</text></g><g class="relationship" transform="translate(189.6294005235958 162.36135696040435) rotate(224.0759724508241)"><path class="outline" fill="#A5ABB6" stroke="none" d="M 25 0.5 L 45.9807856249689 0.5 L 45.9807856249689 -0.5 L 25 -0.5 Z M 91.5432856249689 0.5 L 112.5240712499378 0.5 L 112.5240712499378 3.5 L 119.5240712499378 0 L 112.5240712499378 -3.5 L 112.5240712499378 -0.5 L 91.5432856249689 -0.5 Z"/><text text-anchor="middle" pointer-events="none" font-size="8px" fill="#000000" x="68.7620356249689" y="3" transform="rotate(180 68.7620356249689 0)" font-family="sans-serif">ACTED_IN</text></g><g class="relationship" transform="translate(189.6294005235958 162.36135696040435) rotate(279.9711259629571)"><path class="outline" fill="#A5ABB6" stroke="none" d="M 25 0.5 L 25.340187487899556 0.5 L 25.340187487899556 -0.5 L 25 -0.5 Z M 55.340187487899556 0.5 L 55.68037497579911 0.5 L 55.68037497579911 3.5 L 62.68037497579911 0 L 55.68037497579911 -3.5 L 55.68037497579911 -0.5 L 55.340187487899556 -0.5 Z"/><text text-anchor="middle" pointer-events="none" font-size="8px" fill="#000000" x="40.340187487899556" y="3" font-family="sans-serif">ACT…</text></g><g class="relationship" transform="translate(95.59306117115403 166.9565419944379) rotate(511.47751708473646)"><path class="outline" fill="#A5ABB6" stroke="none" d="M 25 0.5 L 35.87912114861482 0.5 L 35.87912114861482 -0.5 L 25 -0.5 Z M 81.44162114861481 0.5 L 92.32074229722964 0.5 L 92.32074229722964 3.5 L 99.32074229722964 0 L 92.32074229722964 -3.5 L 92.32074229722964 -0.5 L 81.44162114861481 -0.5 Z"/><text text-anchor="middle" pointer-events="none" font-size="8px" fill="#000000" x="58.66037114861482" y="3" transform="rotate(180 58.66037114861482 0)" font-family="sans-serif">ACTED_IN</text></g><g class="relationship" transform="translate(95.59306117115403 166.9565419944379) rotate(467.19280445867355)"><path class="outline" fill="#A5ABB6" stroke="none" d="M 25 0.5 L 35.04619633135557 0.5 L 35.04619633135557 -0.5 L 25 -0.5 Z M 80.60869633135556 0.5 L 90.65489266271113 0.5 L 90.65489266271113 3.5 L 97.65489266271113 0 L 90.65489266271113 -3.5 L 90.65489266271113 -0.5 L 80.60869633135556 -0.5 Z"/><text text-anchor="middle" pointer-events="none" font-size="8px" fill="#000000" x="57.82744633135557" y="3" transform="rotate(180 57.82744633135557 0)" font-family="sans-serif">ACTED_IN</text></g><g class="relationship" transform="translate(95.59306117115403 166.9565419944379) rotate(193.46049644364143)"><path class="outline" fill="#A5ABB6" stroke="none" d="M 25 0.5 L 37.64493542420183 0.5 L 37.64493542420183 -0.5 L 25 -0.5 Z M 83.20743542420183 0.5 L 95.85237084840367 0.5 L 95.85237084840367 3.5 L 102.85237084840367 0 L 95.85237084840367 -3.5 L 95.85237084840367 -0.5 L 83.20743542420183 -0.5 Z"/><text text-anchor="middle" pointer-events="none" font-size="8px" fill="#000000" x="60.42618542420183" y="3" transform="rotate(180 60.42618542420183 0)" font-family="sans-serif">ACTED_IN</text></g><g class="relationship" transform="translate(95.59306117115403 166.9565419944379) rotate(421.38551616209423)"><path class="outline" fill="#A5ABB6" stroke="none" d="M 25 0.5 L 35.82029375155977 0.5 L 35.82029375155977 -0.5 L 25 -0.5 Z M 81.38279375155977 0.5 L 92.20308750311953 0.5 L 92.20308750311953 3.5 L 99.20308750311953 0 L 92.20308750311953 -3.5 L 92.20308750311953 -0.5 L 81.38279375155977 -0.5 Z"/><text text-anchor="middle" pointer-events="none" font-size="8px" fill="#000000" x="58.60154375155977" y="3" font-family="sans-serif">ACTED_IN</text></g><g class="relationship" transform="translate(95.59306117115403 166.9565419944379) rotate(297.1968679052095)"><path class="outline" fill="#A5ABB6" stroke="none" d="M 25 0.5 L 27.912495930432797 0.5 L 27.912495930432797 -0.5 L 25 -0.5 Z M 73.4749959304328 0.5 L 76.3874918608656 0.5 L 76.3874918608656 3.5 L 83.3874918608656 0 L 76.3874918608656 -3.5 L 76.3874918608656 -0.5 L 73.4749959304328 -0.5 Z"/><text text-anchor="middle" pointer-events="none" font-size="8px" fill="#000000" x="50.6937459304328" y="3" font-family="sans-serif">ACTED_IN</text></g><g class="relationship" transform="translate(95.59306117115403 166.9565419944379) rotate(264.6784112286298)"><path class="outline" fill="#A5ABB6" stroke="none" d="M 25 0.5 L 26.510191916040547 0.5 L 26.510191916040547 -0.5 L 25 -0.5 Z M 72.07269191604055 0.5 L 73.5828838320811 0.5 L 73.5828838320811 3.5 L 80.5828838320811 0 L 73.5828838320811 -3.5 L 73.5828838320811 -0.5 L 72.07269191604055 -0.5 Z"/><text text-anchor="middle" pointer-events="none" font-size="8px" fill="#000000" x="49.29144191604055" y="3" transform="rotate(180 49.29144191604055 0)" font-family="sans-serif">ACTED_IN</text></g><g class="relationship" transform="translate(95.59306117115403 166.9565419944379) rotate(320.2142922720642)"><path class="outline" fill="#A5ABB6" stroke="none" d="M 25 0.5 L 44.783445203185124 0.5 L 44.783445203185124 -0.5 L 25 -0.5 Z M 90.34594520318512 0.5 L 110.12939040637025 0.5 L 110.12939040637025 3.5 L 117.12939040637025 0 L 110.12939040637025 -3.5 L 110.12939040637025 -0.5 L 90.34594520318512 -0.5 Z"/><text text-anchor="middle" pointer-events="none" font-size="8px" fill="#000000" x="67.56469520318512" y="3" font-family="sans-serif">ACTED_IN</text></g></g><g class="layer nodes"><g class="node" transform="translate(204.8114209491837,76.00538199807896)"><circle class="outline" cx="0" cy="0" r="25" fill="#F79767" stroke="#f36924" stroke-width="2px"/><text text-anchor="middle" pointer-events="none" font-family="sans-serif" dy="1.5625" font-size="25" fill="#FFFFFF"/><text text-anchor="middle" pointer-events="none" font-family="sans-serif" dy="1.5625" font-size="25" fill="#FFFFFF"/><text text-anchor="middle" pointer-events="none" x="0" y="0" font-size="10px" fill="#FFFFFF" font-family="sans-serif"> The</text><text text-anchor="middle" pointer-events="none" x="0" y="10" font-size="10px" fill="#FFFFFF" font-family="sans-serif"> Matrix</text></g><g class="node" transform="translate(190.7845791085794,-26.182268446766216)"><circle class="outline" cx="0" cy="0" r="25" fill="#57C7E3" stroke="#23b3d7" stroke-width="2px"/><text text-anchor="middle" pointer-events="none" font-family="sans-serif" dy="1.5625" font-size="25" fill="#2A2C34"/><text text-anchor="middle" pointer-events="none" font-family="sans-serif" dy="1.5625" font-size="25" fill="#2A2C34"/><text text-anchor="middle" pointer-events="none" x="0" y="0" font-size="10px" fill="#2A2C34" font-family="sans-serif"> Hugo</text><text text-anchor="middle" pointer-events="none" x="0" y="10" font-size="10px" fill="#2A2C34" font-family="sans-serif"> Weaving</text></g><g class="node" transform="translate(290.52529039371205,-83.43530889282083)"><circle class="outline" cx="0" cy="0" r="25" fill="#F79767" stroke="#f36924" stroke-width="2px"/><text text-anchor="middle" pointer-events="none" font-family="sans-serif" dy="1.5625" font-size="25" fill="#FFFFFF"/><text text-anchor="middle" pointer-events="none" font-family="sans-serif" dy="1.5625" font-size="25" fill="#FFFFFF"/><text text-anchor="middle" pointer-events="none" x="0" y="0" font-size="10px" fill="#FFFFFF" font-family="sans-serif"> Cloud</text><text text-anchor="middle" pointer-events="none" x="0" y="10" font-size="10px" fill="#FFFFFF" font-family="sans-serif"> Atlas</text></g><g class="node" transform="translate(140.9790263666856,-135.81565061107545)"><circle class="outline" cx="0" cy="0" r="25" fill="#F79767" stroke="#f36924" stroke-width="2px"/><text text-anchor="middle" pointer-events="none" font-family="sans-serif" dy="1.5625" font-size="25" fill="#FFFFFF"/><text text-anchor="middle" pointer-events="none" font-family="sans-serif" dy="1.5625" font-size="25" fill="#FFFFFF"/><text text-anchor="middle" pointer-events="none" x="0" y="0" font-size="10px" fill="#FFFFFF" font-family="sans-serif"> V for</text><text text-anchor="middle" pointer-events="none" x="0" y="10" font-size="10px" fill="#FFFFFF" font-family="sans-serif"> Vendetta</text></g><g class="node" transform="translate(145.13148911647843,70.55222389304213)"><circle class="outline" cx="0" cy="0" r="25" fill="#F79767" stroke="#f36924" stroke-width="2px"/><text text-anchor="middle" pointer-events="none" font-family="sans-serif" dy="1.5625" font-size="25" fill="#FFFFFF"/><text text-anchor="middle" pointer-events="none" font-family="sans-serif" dy="1.5625" font-size="25" fill="#FFFFFF"/><text text-anchor="middle" pointer-events="none" font-family="sans-serif" dy="1.5625" font-size="25" fill="#FFFFFF"/><text text-anchor="middle" pointer-events="none" x="0" y="-5" font-size="10px" fill="#FFFFFF" font-family="sans-serif"> The</text><text text-anchor="middle" pointer-events="none" x="0" y="5" font-size="10px" fill="#FFFFFF" font-family="sans-serif"> Matrix</text><text text-anchor="middle" pointer-events="none" x="0" y="15" font-size="10px" fill="#FFFFFF" font-family="sans-serif"> Revol…</text></g><g class="node" transform="translate(85.8006958276842,61.82873911014501)"><circle class="outline" cx="0" cy="0" r="25" fill="#F79767" stroke="#f36924" stroke-width="2px"/><text text-anchor="middle" pointer-events="none" font-family="sans-serif" dy="1.5625" font-size="25" fill="#FFFFFF"/><text text-anchor="middle" pointer-events="none" font-family="sans-serif" dy="1.5625" font-size="25" fill="#FFFFFF"/><text text-anchor="middle" pointer-events="none" font-family="sans-serif" dy="1.5625" font-size="25" fill="#FFFFFF"/><text text-anchor="middle" pointer-events="none" x="0" y="-5" font-size="10px" fill="#FFFFFF" font-family="sans-serif"> The</text><text text-anchor="middle" pointer-events="none" x="0" y="5" font-size="10px" fill="#FFFFFF" font-family="sans-serif"> Matrix</text><text text-anchor="middle" pointer-events="none" x="0" y="15" font-size="10px" fill="#FFFFFF" font-family="sans-serif"> Reloa…</text></g><g class="node" transform="translate(108.81247678254245,-26.831749938714967)"><circle class="outline" cx="0" cy="0" r="25" fill="#57C7E3" stroke="#23b3d7" stroke-width="2px"/><text text-anchor="middle" pointer-events="none" font-family="sans-serif" dy="1.5625" font-size="25" fill="#2A2C34"/><text text-anchor="middle" pointer-events="none" font-family="sans-serif" dy="1.5625" font-size="25" fill="#2A2C34"/><text text-anchor="middle" pointer-events="none" x="0" y="0" font-size="10px" fill="#2A2C34" font-family="sans-serif"> Laurence</text><text text-anchor="middle" pointer-events="none" x="0" y="10" font-size="10px" fill="#2A2C34" font-family="sans-serif"> Fishbur…</text></g><g class="node" transform="translate(189.6294005235958,162.36135696040435)"><circle class="outline" cx="0" cy="0" r="25" fill="#57C7E3" stroke="#23b3d7" stroke-width="2px"/><text text-anchor="middle" pointer-events="none" font-family="sans-serif" dy="1.5625" font-size="25" fill="#2A2C34"/><text text-anchor="middle" pointer-events="none" x="0" y="5" font-size="10px" fill="#2A2C34" font-family="sans-serif"> Carrie-A…</text></g><g class="node" transform="translate(95.59306117115403,166.9565419944379)"><circle class="outline" cx="0" cy="0" r="25" fill="#57C7E3" stroke="#23b3d7" stroke-width="2px"/><text text-anchor="middle" pointer-events="none" font-family="sans-serif" dy="1.5625" font-size="25" fill="#2A2C34"/><text text-anchor="middle" pointer-events="none" font-family="sans-serif" dy="1.5625" font-size="25" fill="#2A2C34"/><text text-anchor="middle" pointer-events="none" x="0" y="0" font-size="10px" fill="#2A2C34" font-family="sans-serif"> Keanu</text><text text-anchor="middle" pointer-events="none" x="0" y="10" font-size="10px" fill="#2A2C34" font-family="sans-serif"> Reeves</text></g><g class="node" transform="translate(-13.638848699464917,226.320140532188)"><circle class="outline" cx="0" cy="0" r="25" fill="#F79767" stroke="#f36924" stroke-width="2px"/><text text-anchor="middle" pointer-events="none" font-family="sans-serif" dy="1.5625" font-size="25" fill="#FFFFFF"/><text text-anchor="middle" pointer-events="none" font-family="sans-serif" dy="1.5625" font-size="25" fill="#FFFFFF"/><text text-anchor="middle" pointer-events="none" x="0" y="0" font-size="10px" fill="#FFFFFF" font-family="sans-serif"> The</text><text text-anchor="middle" pointer-events="none" x="0" y="10" font-size="10px" fill="#FFFFFF" font-family="sans-serif"> Replac…</text></g><g class="node" transform="translate(59.33773716330294,284.1306610446229)"><circle class="outline" cx="0" cy="0" r="25" fill="#F79767" stroke="#f36924" stroke-width="2px"/><text text-anchor="middle" pointer-events="none" font-family="sans-serif" dy="1.5625" font-size="25" fill="#FFFFFF"/><text text-anchor="middle" pointer-events="none" font-family="sans-serif" dy="1.5625" font-size="25" fill="#FFFFFF"/><text text-anchor="middle" pointer-events="none" x="0" y="0" font-size="10px" fill="#FFFFFF" font-family="sans-serif"> Johnny</text><text text-anchor="middle" pointer-events="none" x="0" y="10" font-size="10px" fill="#FFFFFF" font-family="sans-serif"> Mnemo…</text></g><g class="node" transform="translate(-28.747287153442596,137.19572026391916)"><circle class="outline" cx="0" cy="0" r="25" fill="#F79767" stroke="#f36924" stroke-width="2px"/><text text-anchor="middle" pointer-events="none" font-family="sans-serif" dy="1.5625" font-size="25" fill="#FFFFFF"/><text text-anchor="middle" pointer-events="none" x="0" y="5" font-size="10px" fill="#FFFFFF" font-family="sans-serif"> Somethi…</text></g><g class="node" transform="translate(155.07563235550484,275.98970516329314)"><circle class="outline" cx="0" cy="0" r="25" fill="#F79767" stroke="#f36924" stroke-width="2px"/><text text-anchor="middle" pointer-events="none" font-family="sans-serif" dy="1.5625" font-size="25" fill="#FFFFFF"/><text text-anchor="middle" pointer-events="none" font-family="sans-serif" dy="1.5625" font-size="25" fill="#FFFFFF"/><text text-anchor="middle" pointer-events="none" font-family="sans-serif" dy="1.5625" font-size="25" fill="#FFFFFF"/><text text-anchor="middle" pointer-events="none" x="0" y="-5" font-size="10px" fill="#FFFFFF" font-family="sans-serif"> The</text><text text-anchor="middle" pointer-events="none" x="0" y="5" font-size="10px" fill="#FFFFFF" font-family="sans-serif"> Devil's</text><text text-anchor="middle" pointer-events="none" x="0" y="15" font-size="10px" fill="#FFFFFF" font-family="sans-serif"> Advoc…</text></g></g></svg>